# xmcd
#
# Track frame offsets:
#	158
#	22989
#	39117
#	67729
#	87228
#	106305
#	113438
#	117204
#	133536
#	149788
#	167735
#	187812
#	203395
#	228038
#	244483
#
# Disc length: 3623 seconds
#
# Revision: 0
# Processed by: cddbd v1.5.2PL0 Copyright (c) Steve Scherf et al.
# Submitted via: EasyCDDAExtractor 11.9.9.666
#
DISCID=b50e250f
DTITLE=Various Artist - Roostevaba#2
DYEAR=2007
DGENRE=Metal
TTITLE0=Loits - Emaraud
TTITLE1=Dark Tranquillity - Focus Shift
TTITLE2=Tharaphita - Surmatalv
TTITLE3=Finntroll - En Mäkitg Här
TTITLE4=Goresoerd - Like Lingerie For Hardworkers
TTITLE5=Goresoerd - For Idiots All Over The World
TTITLE6=Must Missa - The Final Destruction
TTITLE7=Omnium Gatherum - Into Sea
TTITLE8=The Sin Decay - We Are All Slaves
TTITLE9=Smashed Nail Sister - Fade Away
TTITLE10=Manatark - Sirens Calling
TTITLE11=Halves - Catafalk
TTITLE12=Aeon Aethereal - Dementia Praecox
TTITLE13=Zeromantic - Ascension
TTITLE14=Ohvrikivi - Through The Forest
EXTD=
EXTT0=
EXTT1=
EXTT2=
EXTT3=
EXTT4=
EXTT5=
EXTT6=
EXTT7=
EXTT8=
EXTT9=
EXTT10=
EXTT11=
EXTT12=
EXTT13=
EXTT14=
PLAYORDER=
